<svg width="132" height="68" viewBox="0 0 132 68" fill="none" xmlns="http://www.w3.org/2000/svg">
<path d="M3 49L66 3L129 49" stroke="#222222" stroke-width="5" stroke-linecap="round" stroke-linejoin="round"/>
<mask id="path-2-inside-1_41_180" fill="white">
<path d="M63 49C63 59.4934 54.4934 68 44 68C33.5066 68 25 59.4934 25 49C25 38.5066 33.5066 30 44 30C54.4934 30 63 38.5066 63 49ZM28.8 49C28.8 57.3947 35.6053 64.2 44 64.2C52.3947 64.2 59.2 57.3947 59.2 49C59.2 40.6053 52.3947 33.8 44 33.8C35.6053 33.8 28.8 40.6053 28.8 49Z"/>
</mask>
<path d="M63 49C63 59.4934 54.4934 68 44 68C33.5066 68 25 59.4934 25 49C25 38.5066 33.5066 30 44 30C54.4934 30 63 38.5066 63 49ZM28.8 49C28.8 57.3947 35.6053 64.2 44 64.2C52.3947 64.2 59.2 57.3947 59.2 49C59.2 40.6053 52.3947 33.8 44 33.8C35.6053 33.8 28.8 40.6053 28.8 49Z" fill="#222222" stroke="#222222" stroke-width="2" mask="url(#path-2-inside-1_41_180)"/>
<mask id="path-3-inside-2_41_180" fill="white">
<path d="M106 49C106 59.4934 97.4934 68 87 68C76.5066 68 68 59.4934 68 49C68 38.5066 76.5066 30 87 30C97.4934 30 106 38.5066 106 49ZM71.8 49C71.8 57.3947 78.6053 64.2 87 64.2C95.3947 64.2 102.2 57.3947 102.2 49C102.2 40.6053 95.3947 33.8 87 33.8C78.6053 33.8 71.8 40.6053 71.8 49Z"/>
</mask>
<path d="M106 49C106 59.4934 97.4934 68 87 68C76.5066 68 68 59.4934 68 49C68 38.5066 76.5066 30 87 30C97.4934 30 106 38.5066 106 49ZM71.8 49C71.8 57.3947 78.6053 64.2 87 64.2C95.3947 64.2 102.2 57.3947 102.2 49C102.2 40.6053 95.3947 33.8 87 33.8C78.6053 33.8 71.8 40.6053 71.8 49Z" fill="#222222" stroke="#222222" stroke-width="2" mask="url(#path-3-inside-2_41_180)"/>
</svg>
